<svg id="logosandtypes_com" xmlns="http://www.w3.org/2000/svg" viewBox="0 0 150 150"><path d="M0 0h150v150H0V0z" fill="none"/><path d="M149.4 49.6c-3.4 7.1-7.1 14-10.1 21.3-5.1 12.3-14.2 19.9-26.5 23.8-8.9 2.9-18 4.2-27.2 5.2-13.1 1.3-26.3 1.2-39.4 1.2-12.3 0-24.6.2-37 .3H.4l-.3-.7c1.7-2.2 3.3-4.5 5.2-6.7.4-.5 1.5-.6 2.3-.6 10.6-.2 21.1-.2 31.7-.5 10.2-.3 20.3-.9 30.5-1.7 5.7-.5 11.4-1.9 16.6-4.4 6.1-2.6 11.1-7.3 14.1-13.3 2.9-5.9 5.8-11.8 8.6-17.7.2-.6.5-1.1.6-1.7l-.3-.3c-9-.3-18-.8-26.8 1-4.4.9-7.7 3.6-10.3 7.2-.9 1.1-1.6 2.3-2.2 3.6-3 6.9-8.8 9.5-15.6 10.6-9.2 1.4-18.5 1.1-27.7 1.1-2 0-2.1-.3-1.2-2.4C31 61.6 41 54.3 54.6 51.7c9.9-1.9 20-2.9 30.1-2.9 21.2-.2 42.4-.3 63.6-.4h1.1v1.2"/></svg>